<mxfile host="app.diagrams.net" modified="2021-11-18T00:51:36.766Z" agent="5.0 (Macintosh; Intel Mac OS X 10_15_7) AppleWebKit/605.1.15 (KHTML, like Gecko) Version/14.1 Safari/605.1.15" etag="NAOLhHCOHZrAs0UXPXXH" version="15.8.2" type="github">
  <diagram id="C5RBs43oDa-KdzZeNtuy" name="Page-1">
    <mxGraphModel dx="946" dy="645" grid="1" gridSize="10" guides="1" tooltips="1" connect="1" arrows="1" fold="1" page="1" pageScale="1" pageWidth="827" pageHeight="1169" math="0" shadow="0">
      <root>
        <mxCell id="WIyWlLk6GJQsqaUBKTNV-0" />
        <mxCell id="WIyWlLk6GJQsqaUBKTNV-1" parent="WIyWlLk6GJQsqaUBKTNV-0" />
        <mxCell id="CaJBoh0g-RZe32y1mP-l-7" value="" style="edgeStyle=orthogonalEdgeStyle;rounded=0;orthogonalLoop=1;jettySize=auto;html=1;" edge="1" parent="WIyWlLk6GJQsqaUBKTNV-1" source="CaJBoh0g-RZe32y1mP-l-0" target="CaJBoh0g-RZe32y1mP-l-2">
          <mxGeometry relative="1" as="geometry" />
        </mxCell>
        <mxCell id="CaJBoh0g-RZe32y1mP-l-0" value="Start" style="ellipse;whiteSpace=wrap;html=1;" vertex="1" parent="WIyWlLk6GJQsqaUBKTNV-1">
          <mxGeometry x="362.5" y="10" width="80" height="40" as="geometry" />
        </mxCell>
        <mxCell id="CaJBoh0g-RZe32y1mP-l-5" value="" style="edgeStyle=orthogonalEdgeStyle;rounded=0;orthogonalLoop=1;jettySize=auto;html=1;" edge="1" parent="WIyWlLk6GJQsqaUBKTNV-1" source="CaJBoh0g-RZe32y1mP-l-2" target="CaJBoh0g-RZe32y1mP-l-4">
          <mxGeometry relative="1" as="geometry" />
        </mxCell>
        <mxCell id="CaJBoh0g-RZe32y1mP-l-2" value="Heading 0&lt;span id=&quot;docs-internal-guid-50e01169-7fff-68a3-4e3e-6c373fba5f12&quot;&gt;&lt;span style=&quot;font-size: 15pt ; font-family: &amp;#34;arial&amp;#34; ; vertical-align: baseline&quot;&gt;°&lt;/span&gt;&lt;/span&gt;" style="rounded=0;whiteSpace=wrap;html=1;" vertex="1" parent="WIyWlLk6GJQsqaUBKTNV-1">
          <mxGeometry x="355" y="70" width="95" height="40" as="geometry" />
        </mxCell>
        <mxCell id="CaJBoh0g-RZe32y1mP-l-16" value="" style="edgeStyle=orthogonalEdgeStyle;rounded=0;orthogonalLoop=1;jettySize=auto;html=1;" edge="1" parent="WIyWlLk6GJQsqaUBKTNV-1" source="CaJBoh0g-RZe32y1mP-l-4" target="CaJBoh0g-RZe32y1mP-l-15">
          <mxGeometry relative="1" as="geometry" />
        </mxCell>
        <mxCell id="CaJBoh0g-RZe32y1mP-l-4" value="Main LED blue" style="rounded=0;whiteSpace=wrap;html=1;" vertex="1" parent="WIyWlLk6GJQsqaUBKTNV-1">
          <mxGeometry x="352.5" y="130" width="100" height="40" as="geometry" />
        </mxCell>
        <mxCell id="CaJBoh0g-RZe32y1mP-l-13" value="" style="edgeStyle=orthogonalEdgeStyle;rounded=0;orthogonalLoop=1;jettySize=auto;html=1;" edge="1" parent="WIyWlLk6GJQsqaUBKTNV-1" source="CaJBoh0g-RZe32y1mP-l-10">
          <mxGeometry relative="1" as="geometry">
            <mxPoint x="402.5999999999999" y="330" as="targetPoint" />
          </mxGeometry>
        </mxCell>
        <mxCell id="CaJBoh0g-RZe32y1mP-l-10" value="Spin 365&lt;span id=&quot;docs-internal-guid-50e01169-7fff-68a3-4e3e-6c373fba5f12&quot;&gt;&lt;span style=&quot;font-size: 15pt ; font-family: &amp;#34;arial&amp;#34; ; vertical-align: baseline&quot;&gt;°&lt;/span&gt;&lt;/span&gt;" style="rounded=0;whiteSpace=wrap;html=1;" vertex="1" parent="WIyWlLk6GJQsqaUBKTNV-1">
          <mxGeometry x="348.75" y="260" width="107.5" height="40" as="geometry" />
        </mxCell>
        <mxCell id="CaJBoh0g-RZe32y1mP-l-29" value="" style="edgeStyle=orthogonalEdgeStyle;rounded=0;orthogonalLoop=1;jettySize=auto;html=1;" edge="1" parent="WIyWlLk6GJQsqaUBKTNV-1" source="CaJBoh0g-RZe32y1mP-l-14" target="CaJBoh0g-RZe32y1mP-l-28">
          <mxGeometry relative="1" as="geometry" />
        </mxCell>
        <mxCell id="CaJBoh0g-RZe32y1mP-l-30" value="True" style="edgeLabel;html=1;align=center;verticalAlign=middle;resizable=0;points=[];" vertex="1" connectable="0" parent="CaJBoh0g-RZe32y1mP-l-29">
          <mxGeometry x="-0.68" y="-1" relative="1" as="geometry">
            <mxPoint as="offset" />
          </mxGeometry>
        </mxCell>
        <mxCell id="CaJBoh0g-RZe32y1mP-l-14" value="Count = 5" style="rhombus;whiteSpace=wrap;html=1;" vertex="1" parent="WIyWlLk6GJQsqaUBKTNV-1">
          <mxGeometry x="362.5" y="400" width="80" height="80" as="geometry" />
        </mxCell>
        <mxCell id="CaJBoh0g-RZe32y1mP-l-20" value="" style="edgeStyle=orthogonalEdgeStyle;rounded=0;orthogonalLoop=1;jettySize=auto;html=1;" edge="1" parent="WIyWlLk6GJQsqaUBKTNV-1" source="CaJBoh0g-RZe32y1mP-l-15" target="CaJBoh0g-RZe32y1mP-l-10">
          <mxGeometry relative="1" as="geometry" />
        </mxCell>
        <mxCell id="CaJBoh0g-RZe32y1mP-l-15" value="Count = 0" style="rounded=0;whiteSpace=wrap;html=1;" vertex="1" parent="WIyWlLk6GJQsqaUBKTNV-1">
          <mxGeometry x="347.5" y="190" width="110" height="40" as="geometry" />
        </mxCell>
        <mxCell id="CaJBoh0g-RZe32y1mP-l-22" value="" style="edgeStyle=orthogonalEdgeStyle;rounded=0;orthogonalLoop=1;jettySize=auto;html=1;" edge="1" parent="WIyWlLk6GJQsqaUBKTNV-1" source="CaJBoh0g-RZe32y1mP-l-21" target="CaJBoh0g-RZe32y1mP-l-14">
          <mxGeometry relative="1" as="geometry" />
        </mxCell>
        <mxCell id="CaJBoh0g-RZe32y1mP-l-21" value="Spin -365&lt;span id=&quot;docs-internal-guid-50e01169-7fff-68a3-4e3e-6c373fba5f12&quot;&gt;&lt;span style=&quot;font-size: 15pt ; font-family: &amp;#34;arial&amp;#34; ; vertical-align: baseline&quot;&gt;°&lt;/span&gt;&lt;/span&gt;" style="rounded=0;whiteSpace=wrap;html=1;" vertex="1" parent="WIyWlLk6GJQsqaUBKTNV-1">
          <mxGeometry x="348.75" y="330" width="107.5" height="40" as="geometry" />
        </mxCell>
        <mxCell id="CaJBoh0g-RZe32y1mP-l-23" value="" style="endArrow=classic;html=1;rounded=0;exitX=1;exitY=0.5;exitDx=0;exitDy=0;" edge="1" parent="WIyWlLk6GJQsqaUBKTNV-1" source="CaJBoh0g-RZe32y1mP-l-14">
          <mxGeometry width="50" height="50" relative="1" as="geometry">
            <mxPoint x="390" y="330" as="sourcePoint" />
            <mxPoint x="520" y="380" as="targetPoint" />
            <Array as="points">
              <mxPoint x="520" y="440" />
            </Array>
          </mxGeometry>
        </mxCell>
        <mxCell id="CaJBoh0g-RZe32y1mP-l-24" value="False" style="edgeLabel;html=1;align=center;verticalAlign=middle;resizable=0;points=[];" vertex="1" connectable="0" parent="CaJBoh0g-RZe32y1mP-l-23">
          <mxGeometry x="-0.3236" y="-1" relative="1" as="geometry">
            <mxPoint as="offset" />
          </mxGeometry>
        </mxCell>
        <mxCell id="CaJBoh0g-RZe32y1mP-l-25" value="Count = Count + 1" style="rounded=0;whiteSpace=wrap;html=1;" vertex="1" parent="WIyWlLk6GJQsqaUBKTNV-1">
          <mxGeometry x="470" y="340" width="100" height="40" as="geometry" />
        </mxCell>
        <mxCell id="CaJBoh0g-RZe32y1mP-l-26" value="" style="endArrow=classic;html=1;rounded=0;exitX=0.5;exitY=0;exitDx=0;exitDy=0;" edge="1" parent="WIyWlLk6GJQsqaUBKTNV-1" source="CaJBoh0g-RZe32y1mP-l-25">
          <mxGeometry width="50" height="50" relative="1" as="geometry">
            <mxPoint x="390" y="330" as="sourcePoint" />
            <mxPoint x="460" y="280" as="targetPoint" />
            <Array as="points">
              <mxPoint x="520" y="280" />
            </Array>
          </mxGeometry>
        </mxCell>
        <mxCell id="CaJBoh0g-RZe32y1mP-l-32" value="" style="edgeStyle=orthogonalEdgeStyle;rounded=0;orthogonalLoop=1;jettySize=auto;html=1;" edge="1" parent="WIyWlLk6GJQsqaUBKTNV-1" source="CaJBoh0g-RZe32y1mP-l-28" target="CaJBoh0g-RZe32y1mP-l-31">
          <mxGeometry relative="1" as="geometry" />
        </mxCell>
        <mxCell id="CaJBoh0g-RZe32y1mP-l-28" value="Fade from blue to red" style="rounded=0;whiteSpace=wrap;html=1;" vertex="1" parent="WIyWlLk6GJQsqaUBKTNV-1">
          <mxGeometry x="347.5" y="520" width="110" height="40" as="geometry" />
        </mxCell>
        <mxCell id="CaJBoh0g-RZe32y1mP-l-34" value="" style="edgeStyle=orthogonalEdgeStyle;rounded=0;orthogonalLoop=1;jettySize=auto;html=1;" edge="1" parent="WIyWlLk6GJQsqaUBKTNV-1" source="CaJBoh0g-RZe32y1mP-l-31">
          <mxGeometry relative="1" as="geometry">
            <mxPoint x="402.5" y="650" as="targetPoint" />
          </mxGeometry>
        </mxCell>
        <mxCell id="CaJBoh0g-RZe32y1mP-l-31" value="Speak &#39;I am the winner!&#39; and wait" style="rounded=0;whiteSpace=wrap;html=1;" vertex="1" parent="WIyWlLk6GJQsqaUBKTNV-1">
          <mxGeometry x="347.5" y="580" width="110" height="40" as="geometry" />
        </mxCell>
      </root>
    </mxGraphModel>
  </diagram>
</mxfile>
